<svg xmlns="http://www.w3.org/2000/svg" xmlns:xlink="http://www.w3.org/1999/xlink" width="500" zoomAndPan="magnify" viewBox="0 0 375 374.999991" height="500" preserveAspectRatio="xMidYMid meet" version="1.0"><defs><g/><clipPath id="25be484081"><path d="M 119.308594 150 L 188 150 L 188 209.96875 L 119.308594 209.96875 Z M 119.308594 150 " clip-rule="nonzero"/></clipPath><clipPath id="1a11d8f048"><path d="M 187 118.46875 L 255.808594 118.46875 L 255.808594 179 L 187 179 Z M 187 118.46875 " clip-rule="nonzero"/></clipPath></defs><g clip-path="url(#25be484081)"><path fill="#1230ae" d="M 165.230469 192.609375 L 165.230469 200.914062 L 127.636719 183.445312 L 127.636719 176.710938 L 165.230469 159.246094 L 165.230469 167.546875 L 136.800781 180 L 136.800781 180.15625 Z M 187.558594 150.019531 L 124.6875 150.019531 C 121.71875 150.019531 119.3125 152.425781 119.3125 155.394531 L 119.3125 204.761719 C 119.3125 207.730469 121.71875 210.136719 124.6875 210.136719 L 170.105469 210.136719 L 187.558594 150.019531 " fill-opacity="1" fill-rule="nonzero"/></g><g clip-path="url(#1a11d8f048)"><path fill="#3abef9" d="M 247.378906 152.15625 L 209.785156 169.386719 L 209.785156 161.082031 L 238.839844 148.632812 L 238.839844 148.476562 L 209.785156 136.019531 L 209.785156 127.71875 L 247.378906 144.949219 Z M 205.011719 118.496094 L 187.558594 178.613281 L 250.328125 178.613281 C 253.292969 178.613281 255.699219 176.207031 255.699219 173.234375 L 255.699219 123.867188 C 255.699219 120.902344 253.292969 118.496094 250.328125 118.496094 L 205.011719 118.496094 " fill-opacity="1" fill-rule="nonzero"/></g><g fill="#000000" fill-opacity="1"><g transform="translate(64.815971, 246.731878)"><g><path d="M 24.390625 -21 L 29.265625 -21 L 23.515625 0 L 18.203125 0 L 14.390625 -14.765625 L 10.5625 0 L 5.25 0 L -0.484375 -21 L 4.375 -21 L 8.15625 -6.375 L 12.140625 -21 L 16.625 -21 L 20.65625 -6.4375 Z M 24.390625 -21 "/></g></g></g><g fill="#000000" fill-opacity="1"><g transform="translate(94.813986, 246.731878)"><g><path d="M 14.875 -16.9375 L 6.859375 -16.9375 L 6.859375 -12.53125 L 13.71875 -12.53125 L 13.71875 -8.46875 L 6.859375 -8.46875 L 6.859375 -4.0625 L 14.875 -4.0625 L 14.875 0 L 2.234375 0 L 2.234375 -21 L 14.875 -21 Z M 14.875 -16.9375 "/></g></g></g><g fill="#000000" fill-opacity="1"><g transform="translate(112.353735, 246.731878)"><g><path d="M 14.703125 -10.640625 C 15.679688 -10.265625 16.472656 -9.675781 17.078125 -8.875 C 17.679688 -8.070312 17.984375 -7.023438 17.984375 -5.734375 C 17.984375 -4.503906 17.707031 -3.460938 17.15625 -2.609375 C 16.613281 -1.753906 15.867188 -1.101562 14.921875 -0.65625 C 13.984375 -0.21875 12.929688 0 11.765625 0 L 2.0625 0 L 2.0625 -21 L 10.953125 -21 C 12.140625 -21 13.210938 -20.769531 14.171875 -20.3125 C 15.128906 -19.863281 15.890625 -19.203125 16.453125 -18.328125 C 17.015625 -17.453125 17.296875 -16.394531 17.296875 -15.15625 C 17.296875 -14.0625 17.0625 -13.140625 16.59375 -12.390625 C 16.125 -11.640625 15.492188 -11.054688 14.703125 -10.640625 Z M 12.671875 -14.671875 C 12.671875 -15.296875 12.445312 -15.820312 12 -16.25 C 11.5625 -16.6875 11.023438 -16.90625 10.390625 -16.90625 L 6.6875 -16.90625 L 6.6875 -12.390625 L 10.390625 -12.390625 C 11.023438 -12.390625 11.5625 -12.613281 12 -13.0625 C 12.445312 -13.519531 12.671875 -14.054688 12.671875 -14.671875 Z M 11.09375 -4.09375 C 11.75 -4.09375 12.289062 -4.304688 12.71875 -4.734375 C 13.15625 -5.171875 13.375 -5.703125 13.375 -6.328125 C 13.375 -6.941406 13.15625 -7.472656 12.71875 -7.921875 C 12.289062 -8.378906 11.75 -8.609375 11.09375 -8.609375 L 6.6875 -8.609375 L 6.6875 -4.09375 Z M 11.09375 -4.09375 "/></g></g></g><g fill="#000000" fill-opacity="1"><g transform="translate(132.588112, 246.731878)"><g><path d="M 14.875 -16.9375 L 6.859375 -16.9375 L 6.859375 -12.53125 L 13.71875 -12.53125 L 13.71875 -8.46875 L 6.859375 -8.46875 L 6.859375 0 L 2.234375 0 L 2.234375 -21 L 14.875 -21 Z M 14.875 -16.9375 "/></g></g></g><g fill="#000000" fill-opacity="1"><g transform="translate(149.04301, 246.731878)"><g><path d="M 12.078125 0.28125 C 10.578125 0.28125 9.179688 0 7.890625 -0.5625 C 6.597656 -1.125 5.453125 -1.898438 4.453125 -2.890625 C 3.460938 -3.878906 2.6875 -5.019531 2.125 -6.3125 C 1.570312 -7.613281 1.296875 -9.007812 1.296875 -10.5 C 1.296875 -11.988281 1.570312 -13.378906 2.125 -14.671875 C 2.6875 -15.972656 3.460938 -17.117188 4.453125 -18.109375 C 5.453125 -19.097656 6.597656 -19.875 7.890625 -20.4375 C 9.179688 -21 10.578125 -21.28125 12.078125 -21.28125 C 13.566406 -21.28125 14.960938 -21 16.265625 -20.4375 C 17.578125 -19.875 18.722656 -19.097656 19.703125 -18.109375 C 20.679688 -17.117188 21.453125 -15.972656 22.015625 -14.671875 C 22.578125 -13.378906 22.859375 -11.988281 22.859375 -10.5 C 22.859375 -9.007812 22.578125 -7.613281 22.015625 -6.3125 C 21.453125 -5.019531 20.679688 -3.878906 19.703125 -2.890625 C 18.722656 -1.898438 17.578125 -1.125 16.265625 -0.5625 C 14.960938 0 13.566406 0.28125 12.078125 0.28125 Z M 12.078125 -4.234375 C 13.265625 -4.234375 14.328125 -4.503906 15.265625 -5.046875 C 16.210938 -5.597656 16.960938 -6.347656 17.515625 -7.296875 C 18.066406 -8.242188 18.34375 -9.3125 18.34375 -10.5 C 18.34375 -11.6875 18.066406 -12.753906 17.515625 -13.703125 C 16.960938 -14.648438 16.210938 -15.394531 15.265625 -15.9375 C 14.328125 -16.488281 13.265625 -16.765625 12.078125 -16.765625 C 10.910156 -16.765625 9.851562 -16.488281 8.90625 -15.9375 C 7.957031 -15.394531 7.207031 -14.648438 6.65625 -13.703125 C 6.113281 -12.753906 5.84375 -11.6875 5.84375 -10.5 C 5.84375 -9.3125 6.113281 -8.242188 6.65625 -7.296875 C 7.207031 -6.347656 7.957031 -5.597656 8.90625 -5.046875 C 9.851562 -4.503906 10.910156 -4.234375 12.078125 -4.234375 Z M 12.078125 -4.234375 "/></g></g></g><g fill="#000000" fill-opacity="1"><g transform="translate(174.456657, 246.731878)"><g><path d="M 13.015625 -8.640625 L 18.90625 0 L 13.71875 0 L 8.546875 -8.125 L 6.6875 -8.125 L 6.6875 0 L 2.0625 0 L 2.0625 -21 L 10.984375 -21 C 12.203125 -21 13.273438 -20.710938 14.203125 -20.140625 C 15.140625 -19.566406 15.878906 -18.789062 16.421875 -17.8125 C 16.972656 -16.832031 17.25 -15.75 17.25 -14.5625 C 17.25 -13.132812 16.851562 -11.882812 16.0625 -10.8125 C 15.269531 -9.738281 14.253906 -9.015625 13.015625 -8.640625 Z M 10.296875 -11.9375 C 11.035156 -11.9375 11.644531 -12.164062 12.125 -12.625 C 12.601562 -13.09375 12.84375 -13.691406 12.84375 -14.421875 C 12.84375 -15.140625 12.601562 -15.734375 12.125 -16.203125 C 11.644531 -16.671875 11.035156 -16.90625 10.296875 -16.90625 L 6.6875 -16.90625 L 6.6875 -11.9375 Z M 10.296875 -11.9375 "/></g></g></g><g fill="#000000" fill-opacity="1"><g transform="translate(194.411066, 246.731878)"><g><path d="M 12.078125 -11.515625 L 22.890625 -11.515625 L 22.890625 -10.5 C 22.890625 -9.007812 22.609375 -7.613281 22.046875 -6.3125 C 21.484375 -5.019531 20.707031 -3.878906 19.71875 -2.890625 C 18.726562 -1.898438 17.582031 -1.125 16.28125 -0.5625 C 14.988281 0 13.597656 0.28125 12.109375 0.28125 C 10.617188 0.28125 9.21875 0 7.90625 -0.5625 C 6.601562 -1.125 5.460938 -1.898438 4.484375 -2.890625 C 3.503906 -3.878906 2.734375 -5.019531 2.171875 -6.3125 C 1.609375 -7.613281 1.328125 -9.007812 1.328125 -10.5 C 1.328125 -11.988281 1.609375 -13.378906 2.171875 -14.671875 C 2.734375 -15.972656 3.503906 -17.117188 4.484375 -18.109375 C 5.460938 -19.097656 6.601562 -19.875 7.90625 -20.4375 C 9.21875 -21 10.617188 -21.28125 12.109375 -21.28125 C 14.179688 -21.28125 16.0625 -20.75 17.75 -19.6875 C 19.445312 -18.625 20.753906 -17.226562 21.671875 -15.5 L 17.671875 -13.4375 C 17.160156 -14.4375 16.414062 -15.238281 15.4375 -15.84375 C 14.457031 -16.457031 13.347656 -16.765625 12.109375 -16.765625 C 10.941406 -16.765625 9.878906 -16.488281 8.921875 -15.9375 C 7.960938 -15.394531 7.207031 -14.648438 6.65625 -13.703125 C 6.113281 -12.753906 5.84375 -11.6875 5.84375 -10.5 C 5.84375 -9.3125 6.113281 -8.242188 6.65625 -7.296875 C 7.207031 -6.347656 7.960938 -5.597656 8.921875 -5.046875 C 9.878906 -4.503906 10.941406 -4.234375 12.109375 -4.234375 C 13.410156 -4.234375 14.566406 -4.570312 15.578125 -5.25 C 16.597656 -5.925781 17.351562 -6.8125 17.84375 -7.90625 L 12.078125 -7.90625 Z M 12.078125 -11.515625 "/></g></g></g><g fill="#000000" fill-opacity="1"><g transform="translate(219.859715, 246.731878)"><g><path d="M 14.875 -16.9375 L 6.859375 -16.9375 L 6.859375 -12.53125 L 13.71875 -12.53125 L 13.71875 -8.46875 L 6.859375 -8.46875 L 6.859375 -4.0625 L 14.875 -4.0625 L 14.875 0 L 2.234375 0 L 2.234375 -21 L 14.875 -21 Z M 14.875 -16.9375 "/></g></g></g><g fill="#000000" fill-opacity="1"><g transform="translate(237.399467, 246.731878)"><g><path d="M 10.984375 -21 C 12.179688 -21 13.25 -20.710938 14.1875 -20.140625 C 15.132812 -19.566406 15.878906 -18.800781 16.421875 -17.84375 C 16.972656 -16.894531 17.25 -15.835938 17.25 -14.671875 C 17.25 -13.503906 16.972656 -12.453125 16.421875 -11.515625 C 15.878906 -10.578125 15.132812 -9.835938 14.1875 -9.296875 C 13.25 -8.765625 12.179688 -8.5 10.984375 -8.5 L 6.6875 -8.5 L 6.6875 0 L 2.0625 0 L 2.0625 -21 Z M 10.25 -12.3125 C 11 -12.3125 11.617188 -12.519531 12.109375 -12.9375 C 12.597656 -13.363281 12.84375 -13.925781 12.84375 -14.625 C 12.84375 -15.300781 12.597656 -15.851562 12.109375 -16.28125 C 11.617188 -16.71875 11 -16.9375 10.25 -16.9375 L 6.6875 -16.9375 L 6.6875 -12.3125 Z M 10.25 -12.3125 "/></g></g></g><g fill="#000000" fill-opacity="1"><g transform="translate(256.024061, 246.731878)"><g><path d="M 6.6875 -4.09375 L 13.65625 -4.09375 L 13.65625 0 L 2.0625 0 L 2.0625 -21 L 6.6875 -21 Z M 6.6875 -4.09375 "/></g></g></g><g fill="#000000" fill-opacity="1"><g transform="translate(270.974152, 246.731878)"><g><path d="M 10.671875 0.28125 C 9.035156 0.28125 7.554688 -0.0234375 6.234375 -0.640625 C 4.921875 -1.265625 3.878906 -2.109375 3.109375 -3.171875 C 2.335938 -4.234375 1.953125 -5.414062 1.953125 -6.71875 L 1.953125 -21 L 6.578125 -21 L 6.578125 -7.59375 C 6.578125 -6.519531 6.972656 -5.617188 7.765625 -4.890625 C 8.554688 -4.171875 9.523438 -3.8125 10.671875 -3.8125 C 11.835938 -3.8125 12.816406 -4.171875 13.609375 -4.890625 C 14.410156 -5.617188 14.8125 -6.519531 14.8125 -7.59375 L 14.8125 -21 L 19.421875 -21 L 19.421875 -6.71875 C 19.421875 -5.414062 19.035156 -4.234375 18.265625 -3.171875 C 17.492188 -2.109375 16.445312 -1.265625 15.125 -0.640625 C 13.8125 -0.0234375 12.328125 0.28125 10.671875 0.28125 Z M 10.671875 0.28125 "/></g></g></g><g fill="#000000" fill-opacity="1"><g transform="translate(293.58818, 246.731878)"><g><path d="M 8.546875 0.28125 C 6.703125 0.28125 5.078125 -0.171875 3.671875 -1.078125 C 2.273438 -1.992188 1.238281 -3.101562 0.5625 -4.40625 L 4.375 -6.796875 C 4.769531 -5.972656 5.328125 -5.3125 6.046875 -4.8125 C 6.773438 -4.3125 7.617188 -4.0625 8.578125 -4.0625 C 9.390625 -4.0625 10.023438 -4.234375 10.484375 -4.578125 C 10.941406 -4.929688 11.171875 -5.398438 11.171875 -5.984375 C 11.171875 -6.585938 10.9375 -7.078125 10.46875 -7.453125 C 10 -7.828125 9.394531 -8.140625 8.65625 -8.390625 C 7.925781 -8.648438 7.144531 -8.925781 6.3125 -9.21875 C 5.488281 -9.507812 4.707031 -9.890625 3.96875 -10.359375 C 3.238281 -10.828125 2.640625 -11.429688 2.171875 -12.171875 C 1.703125 -12.921875 1.46875 -13.890625 1.46875 -15.078125 C 1.46875 -16.484375 1.796875 -17.640625 2.453125 -18.546875 C 3.109375 -19.460938 3.953125 -20.144531 4.984375 -20.59375 C 6.023438 -21.050781 7.09375 -21.28125 8.1875 -21.28125 C 9.5 -21.28125 10.710938 -21.003906 11.828125 -20.453125 C 12.953125 -19.910156 13.898438 -19.195312 14.671875 -18.3125 L 11.578125 -15.359375 C 11.066406 -15.941406 10.519531 -16.390625 9.9375 -16.703125 C 9.351562 -17.023438 8.757812 -17.1875 8.15625 -17.1875 C 7.59375 -17.1875 7.113281 -17.046875 6.71875 -16.765625 C 6.320312 -16.484375 6.125 -16.039062 6.125 -15.4375 C 6.125 -14.832031 6.359375 -14.351562 6.828125 -14 C 7.296875 -13.644531 7.894531 -13.335938 8.625 -13.078125 C 9.363281 -12.828125 10.140625 -12.550781 10.953125 -12.25 C 11.773438 -11.945312 12.550781 -11.550781 13.28125 -11.0625 C 14.019531 -10.570312 14.617188 -9.921875 15.078125 -9.109375 C 15.546875 -8.304688 15.78125 -7.253906 15.78125 -5.953125 C 15.78125 -4.640625 15.445312 -3.515625 14.78125 -2.578125 C 14.125 -1.648438 13.242188 -0.941406 12.140625 -0.453125 C 11.046875 0.0351562 9.847656 0.28125 8.546875 0.28125 Z M 8.546875 0.28125 "/></g></g></g></svg>