<?xml version="1.0" encoding="UTF-8"?>
<svg version="1.1" xmlns="http://www.w3.org/2000/svg" width="512" height="512">
<path d="M0 0 C1.01790619 0.00215515 2.03581238 0.0043103 3.08456421 0.00653076 C17.69363523 0.05620146 32.02575853 0.30709809 46.375 3.3125 C47.34985352 3.51117676 48.32470703 3.70985352 49.32910156 3.91455078 C97.7109774 14.03517194 141.69928269 35.9516877 177.375 70.3125 C178.3640332 71.26068604 178.3640332 71.26068604 179.37304688 72.22802734 C188.86130305 81.37247479 197.6012044 90.66984009 205.375 101.3125 C206.23306152 102.46355017 207.09113451 103.61459177 207.94921875 104.765625 C213.98736829 112.95680614 219.34595521 121.47054105 224.375 130.3125 C224.73948242 130.94430176 225.10396484 131.57610352 225.47949219 132.22705078 C247.08534998 169.97532572 256.85198095 212.74189997 256.6875 255.9375 C256.68534485 256.95540619 256.6831897 257.97331238 256.68096924 259.02206421 C256.63129854 273.63113523 256.38040191 287.96325853 253.375 302.3125 C253.07698486 303.77478027 253.07698486 303.77478027 252.77294922 305.26660156 C242.65232806 353.6484774 220.7358123 397.63678269 186.375 433.3125 C185.74287598 433.97185547 185.11075195 434.63121094 184.45947266 435.31054688 C175.31502521 444.79880305 166.01765991 453.5387044 155.375 461.3125 C154.22394983 462.17056152 153.07290823 463.02863451 151.921875 463.88671875 C143.73224019 469.92427396 135.22961724 475.30707302 126.375 480.3125 C125.66778809 480.7146875 124.96057617 481.116875 124.23193359 481.53125 C101.09654164 494.5566741 75.92537591 503.30551461 49.9375 508.625 C49.21860596 508.77235596 48.49971191 508.91971191 47.7590332 509.0715332 C33.08339502 511.86090125 18.55831162 512.66142619 3.64770508 512.62817383 C0.70811513 512.6250221 -2.2304558 512.64854926 -5.16992188 512.67382812 C-18.54306192 512.71848737 -31.43916711 511.51301542 -44.625 509.3125 C-46.33055054 509.03031616 -46.33055054 509.03031616 -48.07055664 508.74243164 C-91.33802759 500.97044532 -132.38793216 480.98345309 -165.625 452.3125 C-166.37007813 451.67828125 -167.11515625 451.0440625 -167.8828125 450.390625 C-181.38779833 438.57948485 -194.05918743 425.82889772 -204.625 411.3125 C-205.48149066 410.16255169 -206.33826433 409.01281411 -207.1953125 407.86328125 C-213.23534209 399.67315742 -218.61867614 391.16870382 -223.625 382.3125 C-224.0271875 381.60528809 -224.429375 380.89807617 -224.84375 380.16943359 C-237.8691741 357.03404164 -246.61801461 331.86287591 -251.9375 305.875 C-252.08485596 305.15610596 -252.23221191 304.43721191 -252.3840332 303.6965332 C-255.35789088 288.05024391 -255.99800362 272.57681954 -255.9375 256.6875 C-255.93534485 255.66959381 -255.9331897 254.65168762 -255.93096924 253.60293579 C-255.88129854 238.99386477 -255.63040191 224.66174147 -252.625 210.3125 C-252.42632324 209.33764648 -252.22764648 208.36279297 -252.02294922 207.35839844 C-241.90232806 158.9765226 -219.9858123 114.98821731 -185.625 79.3125 C-184.99287598 78.65314453 -184.36075195 77.99378906 -183.70947266 77.31445312 C-174.56502521 67.82619695 -165.26765991 59.0862956 -154.625 51.3125 C-153.47394983 50.45443848 -152.32290823 49.59636549 -151.171875 48.73828125 C-142.98224019 42.70072604 -134.47961724 37.31792698 -125.625 32.3125 C-124.91778809 31.9103125 -124.21057617 31.508125 -123.48193359 31.09375 C-100.34654164 18.0683259 -75.17537591 9.31948539 -49.1875 4 C-48.46860596 3.85264404 -47.74971191 3.70528809 -47.0090332 3.5534668 C-31.36274391 0.57960912 -15.88931954 -0.06050362 0 0 Z " fill="#BCBCBC" transform="translate(255.625,-0.3125)"/>
<path d="M0 0 C34.42575832 -1.29243461 69.74518218 8.32934598 97.58300781 29.09863281 C98.36417969 29.67097656 99.14535156 30.24332031 99.95019531 30.83300781 C105.79932527 35.24515429 111.23043513 40.10179525 116.58300781 45.09863281 C117.78763672 46.20464844 117.78763672 46.20464844 119.01660156 47.33300781 C138.64410028 66.04979059 152.73139686 91.96224371 159.58300781 118.09863281 C159.85757812 119.10667969 160.13214844 120.11472656 160.41503906 121.15332031 C167.97343475 151.01456831 165.67017637 182.1789442 155.58300781 211.09863281 C155.3094043 211.88786133 155.03580078 212.67708984 154.75390625 213.49023438 C140.84327027 252.91183787 111.34996542 284.11423963 74.10644531 302.55566406 C64.88295405 306.91750405 55.37430047 310.26065253 45.58300781 313.09863281 C44.36436035 313.45658936 44.36436035 313.45658936 43.12109375 313.82177734 C30.82544242 317.24063029 18.44369571 317.47813916 5.77050781 317.53613281 C4.98899353 317.54257812 4.20747925 317.54902344 3.40228271 317.55566406 C-7.56618439 317.61098033 -17.70260923 316.48089017 -28.41699219 314.09863281 C-29.78959674 313.80462996 -31.16231879 313.51117513 -32.53515625 313.21826172 C-41.09279989 311.34861 -48.79813603 308.4900592 -56.68383789 304.65258789 C-66.83785276 299.97092794 -76.57372734 303.96909404 -86.91333008 306.56472778 C-91.00226359 307.58995137 -95.09652447 308.59348018 -99.19042969 309.59863281 C-100.03051575 309.8052504 -100.87060181 310.01186798 -101.73614502 310.2247467 C-110.01468323 312.25587459 -118.30876019 314.216825 -126.61529541 316.13009644 C-128.14162455 316.48224373 -129.66747102 316.83649009 -131.19281006 317.19290161 C-133.31839373 317.68912484 -135.4455092 318.17812607 -137.57324219 318.66503906 C-138.77787109 318.9429126 -139.9825 319.22078613 -141.22363281 319.50708008 C-148.16019101 320.79204036 -148.16019101 320.79204036 -151.22949219 319.09863281 C-154.30781044 313.9140968 -152.05309928 306.16410038 -150.87792969 300.55175781 C-150.71644943 299.7505249 -150.55496918 298.94929199 -150.38859558 298.1237793 C-149.86381483 295.53049127 -149.32796651 292.93962815 -148.79199219 290.34863281 C-148.42672206 288.55155524 -148.06206219 286.75435353 -147.69799805 284.95703125 C-146.04846866 276.84642297 -144.35739782 268.74579657 -142.58496094 260.66113281 C-142.31184082 259.41170898 -142.0387207 258.16228516 -141.75732422 256.875 C-141.25732587 254.60821529 -140.74980785 252.34306908 -140.23291016 250.08007812 C-137.69972378 238.68344007 -136.14606169 229.7525598 -141.16699219 218.91113281 C-141.89340822 217.25205048 -142.61738684 215.59189871 -143.33886719 213.93066406 C-143.69215088 213.12685303 -144.04543457 212.32304199 -144.40942383 211.49487305 C-147.99779982 202.96085066 -149.7806366 194.17213264 -151.41699219 185.09863281 C-151.62582031 184.04289063 -151.83464844 182.98714844 -152.04980469 181.89941406 C-158.99696172 142.12449387 -147.44038864 100.28325887 -124.66699219 67.47363281 C-119.18385397 59.76305145 -113.05554463 52.82379891 -106.41699219 46.09863281 C-105.87824463 45.53869629 -105.33949707 44.97875977 -104.78442383 44.40185547 C-93.70300834 33.03059665 -80.51182273 24.2730769 -66.41699219 17.09863281 C-65.80678223 16.78200684 -65.19657227 16.46538086 -64.56787109 16.13916016 C-44.27117079 5.70474913 -22.70867643 0.9266975 0 0 Z " fill="#BCBCBC" transform="translate(250.4169921875,95.9013671875)"/>
<path d="M0 0 C34.42575832 -1.29243461 69.74518218 8.32934598 97.58300781 29.09863281 C98.36417969 29.67097656 99.14535156 30.24332031 99.95019531 30.83300781 C105.79932527 35.24515429 111.23043513 40.10179525 116.58300781 45.09863281 C117.78763672 46.20464844 117.78763672 46.20464844 119.01660156 47.33300781 C138.64410028 66.04979059 152.73139686 91.96224371 159.58300781 118.09863281 C159.85757812 119.10667969 160.13214844 120.11472656 160.41503906 121.15332031 C167.97343475 151.01456831 165.67017637 182.1789442 155.58300781 211.09863281 C155.3094043 211.88786133 155.03580078 212.67708984 154.75390625 213.49023438 C140.84327027 252.91183787 111.34996542 284.11423963 74.10644531 302.55566406 C64.88295405 306.91750405 55.37430047 310.26065253 45.58300781 313.09863281 C44.36436035 313.45658936 44.36436035 313.45658936 43.12109375 313.82177734 C30.82544242 317.24063029 18.44369571 317.47813916 5.77050781 317.53613281 C4.98899353 317.54257812 4.20747925 317.54902344 3.40228271 317.55566406 C-7.56618439 317.61098033 -17.70260923 316.48089017 -28.41699219 314.09863281 C-29.78959674 313.80462996 -31.16231879 313.51117513 -32.53515625 313.21826172 C-41.09279989 311.34861 -48.79813603 308.4900592 -56.68383789 304.65258789 C-66.83785276 299.97092794 -76.57372734 303.96909404 -86.91333008 306.56472778 C-91.00226359 307.58995137 -95.09652447 308.59348018 -99.19042969 309.59863281 C-100.03051575 309.8052504 -100.87060181 310.01186798 -101.73614502 310.2247467 C-110.01468323 312.25587459 -118.30876019 314.216825 -126.61529541 316.13009644 C-128.14162455 316.48224373 -129.66747102 316.83649009 -131.19281006 317.19290161 C-133.31839373 317.68912484 -135.4455092 318.17812607 -137.57324219 318.66503906 C-138.77787109 318.9429126 -139.9825 319.22078613 -141.22363281 319.50708008 C-148.16019101 320.79204036 -148.16019101 320.79204036 -151.22949219 319.09863281 C-154.30781044 313.9140968 -152.05309928 306.16410038 -150.87792969 300.55175781 C-150.71644943 299.7505249 -150.55496918 298.94929199 -150.38859558 298.1237793 C-149.86381483 295.53049127 -149.32796651 292.93962815 -148.79199219 290.34863281 C-148.42672206 288.55155524 -148.06206219 286.75435353 -147.69799805 284.95703125 C-146.04846866 276.84642297 -144.35739782 268.74579657 -142.58496094 260.66113281 C-142.31184082 259.41170898 -142.0387207 258.16228516 -141.75732422 256.875 C-141.25732587 254.60821529 -140.74980785 252.34306908 -140.23291016 250.08007812 C-137.69972378 238.68344007 -136.14606169 229.7525598 -141.16699219 218.91113281 C-141.89340822 217.25205048 -142.61738684 215.59189871 -143.33886719 213.93066406 C-143.69215088 213.12685303 -144.04543457 212.32304199 -144.40942383 211.49487305 C-147.99779982 202.96085066 -149.7806366 194.17213264 -151.41699219 185.09863281 C-151.62582031 184.04289063 -151.83464844 182.98714844 -152.04980469 181.89941406 C-158.99696172 142.12449387 -147.44038864 100.28325887 -124.66699219 67.47363281 C-119.18385397 59.76305145 -113.05554463 52.82379891 -106.41699219 46.09863281 C-105.87824463 45.53869629 -105.33949707 44.97875977 -104.78442383 44.40185547 C-93.70300834 33.03059665 -80.51182273 24.2730769 -66.41699219 17.09863281 C-65.80678223 16.78200684 -65.19657227 16.46538086 -64.56787109 16.13916016 C-44.27117079 5.70474913 -22.70867643 0.9266975 0 0 Z M-75.41699219 64.09863281 C-76.23167969 64.76378906 -77.04636719 65.42894531 -77.88574219 66.11425781 C-83.85804629 71.14571949 -88.6796058 76.91031258 -93.41699219 83.09863281 C-94.01253906 83.86691406 -94.60808594 84.63519531 -95.22167969 85.42675781 C-115.42678713 112.8014195 -122.23285847 146.58212338 -117.6940918 180.07324219 C-115.76404179 191.58416588 -111.71545916 203.20658993 -106.11230469 213.43457031 C-105.73614014 214.12736084 -105.35997559 214.82015137 -104.97241211 215.53393555 C-104.25720114 216.81488011 -103.51221644 218.07992219 -102.73071289 219.3215332 C-99.30242931 225.36953506 -100.94282847 230.59118173 -102.41699219 237.09863281 C-102.69859925 238.45918677 -102.97666595 239.82047697 -103.25170898 241.18237305 C-104.31709651 246.43770041 -105.42415327 251.68404487 -106.53613281 256.9296875 C-107.01285899 259.18321584 -107.48472117 261.43772141 -107.95605469 263.69238281 C-108.17631821 264.72051086 -108.17631821 264.72051086 -108.40103149 265.76940918 C-109.07244513 268.99199235 -109.41699219 271.78258597 -109.41699219 275.09863281 C-101.07247324 274.42479445 -93.05158737 272.55140481 -84.91699219 270.66113281 C-83.54079751 270.34490982 -82.16449594 270.02915161 -80.78808594 269.71386719 C-79.78359154 269.48278008 -79.78359154 269.48278008 -78.75880432 269.24702454 C-76.8010871 268.79926652 -74.8413535 268.36035402 -72.8815918 267.92163086 C-70.83722213 267.43600123 -68.80141449 266.90380795 -66.7980957 266.26977539 C-61.23243551 264.56832425 -58.100871 265.57391719 -52.97241211 268.2253418 C-52.10849854 268.69915283 -51.24458496 269.17296387 -50.35449219 269.66113281 C-48.49906232 270.6089995 -46.63963517 271.54908076 -44.77636719 272.48144531 C-43.86693359 272.93680664 -42.9575 273.39216797 -42.02050781 273.86132812 C-36.03942335 276.7038015 -29.81833852 278.47352322 -23.41699219 280.09863281 C-21.62068359 280.57429688 -21.62068359 280.57429688 -19.78808594 281.05957031 C-2.23842223 285.04896206 17.19932704 284.7193754 34.58300781 280.09863281 C35.22318848 279.93234375 35.86336914 279.76605469 36.52294922 279.59472656 C69.17620752 270.92358838 96.38065674 250.05188567 113.58300781 221.09863281 C130.4840494 191.32060716 134.29795797 157.2421559 125.58300781 124.09863281 C120.72862263 107.0502716 111.90570504 91.629256 100.58300781 78.09863281 C99.95394531 77.3290625 99.32488281 76.55949219 98.67675781 75.76660156 C84.33951895 58.7248381 62.75292722 45.6644459 41.58300781 39.09863281 C40.96989746 38.90398437 40.35678711 38.70933594 39.72509766 38.50878906 C28.42163372 35.08671638 17.05504586 34.70397384 5.33300781 34.66113281 C4.61633942 34.65495941 3.89967102 34.64878601 3.1612854 34.64242554 C-25.89626476 34.48158809 -53.37234691 45.22132162 -75.41699219 64.09863281 Z " fill="#FEFEFE" transform="translate(250.4169921875,95.9013671875)"/>
<path d="M0 0 C6.05203772 3.01399494 7.92830474 6.95315667 10.5 12.875 C10.88019287 13.71836914 11.26038574 14.56173828 11.65209961 15.43066406 C12.41890974 17.13943497 13.1780441 18.85167253 13.92919922 20.56738281 C14.89624145 22.76428403 15.89481824 24.94230874 16.91015625 27.1171875 C19.61055427 33.0542328 21.50665269 37.36674709 21 44 C19.4027003 47.3789032 17.76991416 50.06859166 15.3984375 52.9375 C12.18740667 56.83334783 9.96947997 59.73957164 10.42578125 64.94140625 C12.73992051 73.23767421 20.2560247 79.93184973 26 86 C26.57621094 86.61746094 27.15242188 87.23492187 27.74609375 87.87109375 C34.84413211 95.2414789 43.03364892 101.40284751 51.3125 107.375 C51.88685791 107.79177002 52.46121582 108.20854004 53.05297852 108.63793945 C58.513548 112.51958721 63.25496381 115.66217027 70.0625 115.33984375 C76.09017498 114.28257011 80.22759258 108.92505349 84.265625 104.70703125 C86.70982869 102.30136231 87.66990833 102.01824627 91.15795898 101.82543945 C97.28753741 102.10393272 102.99960156 103.90780129 108.87036133 105.57055664 C111.05552133 106.18553596 113.24671501 106.77402704 115.43945312 107.36132812 C116.84679939 107.75361457 118.25371663 108.1474441 119.66015625 108.54296875 C120.92480713 108.89383545 122.18945801 109.24470215 123.49243164 109.60620117 C127.8663088 111.34424423 131.8162048 113.63240961 134 118 C134.9910291 124.81332505 133.04702801 128.5905731 129.18359375 134.1875 C120.95665943 144.78390914 112.31461477 151.45644945 99 154 C79.95347071 156.23941568 62.32707531 150.38887979 46 141 C45.32839844 140.61682617 44.65679687 140.23365234 43.96484375 139.83886719 C34.11712419 134.14419444 25.42214667 127.62420328 17 120 C16.47390137 119.52884766 15.94780273 119.05769531 15.40576172 118.57226562 C11.89486506 115.42523139 8.43658203 112.22800335 5 109 C4.29359375 108.34773438 3.5871875 107.69546875 2.859375 107.0234375 C-14.43777753 90.49973488 -30.55334723 66.54711588 -31.4753418 42.10791016 C-31.61359738 28.88739102 -27.60016614 20.12405523 -19 10 C-8.12129623 -0.82589453 -8.12129623 -0.82589453 0 0 Z " fill="#FEFEFE" transform="translate(207,178)"/>
</svg>
